<svg viewBox="0 0 64 64" xmlns="http://www.w3.org/2000/svg"><path d="m55 35.1 7.5 7.4-33.3 15.9s-4.4 2-6.5-1.2c-8.2-12.8 32.3-22.1 32.3-22.1z" fill="#256382"/><path d="m28.4 49.1s-6.4 2.2-5.2 6.5c1.2 4.4 6.3 1.7 6.3 1.7l31.6-14.7s-1.8-4.7 1.4-7.8z" fill="#d9e3e8"/><path d="m33.7 5 30.3 29.5-35.8 14-23-35.8z" fill="#42ade2"/><path d="m34.6 11.7 5.8 6.2-21.7 7.8-5.1-7.9z" fill="#fff"/><path d="m61 38-21.1 8.6 20.8-9.5zm-.3 2.6-22.5 9.3 22.1-10.3zm.2 1.4-28.7 12.5 28.3-13.4z" fill="#94989b"/><path d="m22.7 57.2c-3.5-7.3 5.5-8.6 5.5-8.6l-23-35.9s-5.2-.1-5.2 5.3c0 2.2 1 3.9 1 3.9z" fill="#428bc1"/></svg>